<?xml version="1.0" encoding="UTF-8" standalone="no"?>
<!DOCTYPE svg PUBLIC "-//W3C//DTD SVG 1.1//EN" "http://www.w3.org/Graphics/SVG/1.1/DTD/svg11.dtd">
<!-- Created with Vectornator (http://vectornator.io/) -->
<svg height="100%" stroke-miterlimit="10" style="fill-rule:nonzero;clip-rule:evenodd;stroke-linecap:round;stroke-linejoin:round;" version="1.1" viewBox="0 0 140.65 55.721" width="100%" xml:space="preserve" xmlns="http://www.w3.org/2000/svg" xmlns:vectornator="http://vectornator.io" xmlns:xlink="http://www.w3.org/1999/xlink">
<defs>
<linearGradient gradientTransform="matrix(1 0 0 1 0 0)" gradientUnits="userSpaceOnUse" id="LinearGradient" x1="53.838" x2="64.936" y1="11.6955" y2="11.6955">
<stop offset="0.157025" stop-color="#d7644c"/>
<stop offset="0.200413" stop-color="#d5694f"/>
<stop offset="0.249521" stop-color="#cb6352"/>
<stop offset="0.61468" stop-color="#813365"/>
<stop offset="0.922131" stop-color="#420b75"/>
</linearGradient>
<linearGradient gradientTransform="matrix(1 0 0 1 0 0)" gradientUnits="userSpaceOnUse" id="LinearGradient_2" x1="0" x2="140.65" y1="27.8598" y2="27.8598">
<stop offset="0.157025" stop-color="#d7644c"/>
<stop offset="0.200413" stop-color="#d5694f"/>
<stop offset="0.249521" stop-color="#cb6352"/>
<stop offset="0.61468" stop-color="#813365"/>
<stop offset="0.922131" stop-color="#420b75"/>
</linearGradient>
</defs>
<clipPath id="ArtboardFrame">
<rect height="55.721" width="140.65" x="0" y="0"/>
</clipPath>
<g clip-path="url(#ArtboardFrame)" id="Untitled" vectornator:layerName="Untitled">
<g opacity="1">
<path d="M59.36 17.354C62.664 17.354 64.936 14.864 64.936 11.668C64.936 8.474 62.664 6.037 59.36 6.037C56.056 6.037 53.838 8.257 53.838 11.668C53.838 15.079 56.057 17.354 59.36 17.354Z" fill="url(#LinearGradient)" fill-rule="nonzero" opacity="1" stroke="none"/>
<path d="M139.326 45.518C137.108 46.997 134.419 48.1 130.438 48.1C126.626 48.1 123.506 46.49 122.017 43.144C132.496 43.748 140.65 39.5 140.65 31.72C140.65 25.98 136.194 21.553 129.211 21.553C119.843 21.553 114.807 27.672 112.752 36.455C111.694 40.97 109.731 47.414 106.266 47.414C103.647 47.414 103.592 44.198 103.592 41.491C103.592 39.324 103.591 35.713 103.591 32.789C103.591 25.371 100.262 21.851 93.635 21.851C87.773 21.851 84.691 26.351 83.18 29.962L83.014 29.962L82.916 22.703C81.02 22.703 75.933 22.703 75.933 22.703L75.715 26.263C74.895 34.421 72.038 47.442 66.64 47.442C63.826 47.442 63.328 43.32 63.328 40.016L63.328 22.673L56.18 22.673C52.089 26.039 46.617 27.878 42.826 27.819C34.76 27.692 31.138 22.511 31.138 14.227C31.138 10.165 33.111 7.686 35.33 7.686C37.441 7.686 39.078 9.558 39.078 13.402C39.078 15.622 38.557 18.027 38.125 19.436C39.479 21.819 41.363 22.801 45.556 22.04C46.91 19.278 47.652 15.954 47.652 12.704C47.649 4.417 43.007 0 35.265 0C27.305 0 22.545 6.392 22.545 14.459C22.545 22.452 26.5 28.947 32.661 32.073C30.069 37.257 26.316 42.733 22.88 46.173C16.619 38.605 11.357 27.743 9.06 7.966L0 7.966C3.406 40.445 16.411 52.87 19.768 54.874C21.664 56.011 23.295 55.956 25.027 54.981C27.749 53.434 36.135 43.797 40.664 34.233C44.726 34.221 50.881 32.874 54.607 30.055L54.608 39.854C54.608 50.36 58.317 55.507 64.544 55.507C69.495 55.507 74.086 50.704 76.023 44.747L76.187 44.747L76.186 53.964L84.324 53.964L84.324 44.59C84.324 34.248 87.065 29.403 91.398 29.403C93.836 29.403 95.47 31 95.47 35.115C95.47 37.551 95.47 40.963 95.47 43.344C95.47 50.329 98.606 55.511 104.128 55.511C109.286 55.511 112.759 50.964 114.361 46.489C117.706 52.813 123.895 55.511 129.389 55.511C133.494 55.511 136.78 54.575 139.325 53.287L139.326 45.518L139.326 45.518ZM128.303 29.163C130.686 29.163 132.29 29.85 132.411 31.863C132.593 34.88 129.632 37.825 121.132 38.028C121.494 32.993 124.371 29.163 128.303 29.163Z" fill="url(#LinearGradient_2)" fill-rule="nonzero" opacity="1" stroke="none"/>
</g>
</g>
</svg>
