<?xml version="1.0" encoding="UTF-8" standalone="no"?>
<!DOCTYPE svg PUBLIC "-//W3C//DTD SVG 1.1//EN" "http://www.w3.org/Graphics/SVG/1.1/DTD/svg11.dtd">
<!-- Created with Vectornator (http://vectornator.io/) -->
<svg height="100%" stroke-miterlimit="10" style="fill-rule:nonzero;clip-rule:evenodd;stroke-linecap:round;stroke-linejoin:round;" version="1.1" viewBox="0 0 3000 3000" width="100%" xml:space="preserve" xmlns="http://www.w3.org/2000/svg" xmlns:vectornator="http://vectornator.io" xmlns:xlink="http://www.w3.org/1999/xlink">
<defs/>
<clipPath id="ArtboardFrame">
<rect height="3000" width="3000" x="0" y="0"/>
</clipPath>
<g clip-path="url(#ArtboardFrame)" id="Layer-1" vectornator:layerName="Layer 1">
<path d="M3000 1480.3L3009.06 1480.3C3011.36 1500.08 3016.62 1510.94 3022.88 1518.51C3026.32 1515.07 3030.07 1509.59 3032.66 1504.41C3026.5 1501.28 3022.54 1494.79 3022.54 1486.8C3022.54 1478.72 3027.3 1472.33 3035.27 1472.33C3043.01 1472.33 3047.65 1476.75 3047.66 1485.03C3047.66 1488.28 3046.92 1491.6 3045.56 1494.37C3041.37 1495.13 3039.48 1494.15 3038.13 1491.77C3038.56 1490.36 3039.08 1487.96 3039.08 1485.74C3039.08 1481.9 3037.44 1480.02 3035.33 1480.02C3033.11 1480.02 3031.14 1482.5 3031.14 1486.56C3031.14 1494.84 3034.76 1500.03 3042.83 1500.15C3044.82 1500.18 3047.28 1499.68 3049.75 1498.71L3049.75 1504.9C3046.65 1506.01 3043.24 1506.56 3040.66 1506.57C3036.13 1516.13 3027.75 1525.77 3025.02 1527.32C3024.78 1527.45 3024.54 1527.57 3024.31 1527.67L3020.68 1527.67C3020.38 1527.55 3020.08 1527.4 3019.77 1527.22C3016.41 1525.2 3003.41 1512.78 3000 1480.3Z" fill="#04ae86" fill-rule="nonzero" opacity="1" stroke="none"/>
<path d="M298.441 427.401L790.423 427.401C915.32 1501.51 1200.95 2091.24 1540.89 2502.31C1727.69 2315.51 1931.32 2017.93 2071.97 1736.64C1737.46 1566.67 1522.42 1214.25 1522.42 780.369C1522.42 341.603 1780.9-5.39113 2213.7-5.39113C2634-5.39113 2885.96 234.627 2886.51 684.253C2886.51 860.737 2846.32 1041.02 2772.47 1191.44C2544.94 1232.71 2442.31 1179.49 2369 1050.25C2392.35 973.686 2420.59 843.36 2420.59 722.808C2420.59 514.286 2331.53 412.197 2216.96 412.197C2096.4 412.197 1989.43 546.867 1989.43 767.336C1989.43 1216.96 2186 1498.79 2624.23 1505.31C2732.29 1506.94 2865.87 1479.79 3000 1427.11L3000 1763.25C2831.66 1823.52 2646.49 1853.39 2506.39 1853.93C2260.4 2373.07 1805.34 2896.54 1657.09 2980.71C1644.06 2987.77 1631.03 2994.29 1618.54 2999.72L1421.42 2999.72C1405.13 2993.2 1388.84 2985.06 1372.01 2975.28C1189.55 2865.59 483.613 2191.15 298.441 427.401Z" fill="#04ae86" fill-rule="nonzero" opacity="1" stroke="none"/>
</g>
</svg>
